<svg version="1.1" id="Layer_1" xmlns="http://www.w3.org/2000/svg" xmlns:xlink="http://www.w3.org/1999/xlink" x="0px" y="0px"
	 width="100%" viewBox="0 0 496 496" enable-background="new 0 0 496 496" xml:space="preserve">
<path fill="#000000" opacity="1.000000" stroke="none" 
	d="
M53.557362,215.742126 
	C59.779873,180.604050 74.285126,149.740067 96.827164,122.724480 
	C123.773109,90.431007 157.842606,68.966438 198.180511,57.464401 
	C221.651169,50.771927 245.642761,49.115643 269.892212,51.553368 
	C327.441681,57.338631 374.053223,83.326164 409.811279,128.519958 
	C429.887787,153.894211 442.724091,182.862808 448.243195,214.771713 
	C457.869232,270.425537 446.713898,321.750031 414.028656,367.871246 
	C389.640778,402.284271 357.118805,426.323608 317.267395,440.432983 
	C284.039246,452.197388 249.994324,455.540619 215.479477,448.742981 
	C156.925247,437.210785 111.143723,406.239807 79.658028,355.308838 
	C63.795769,329.650146 54.242462,301.563080 51.539783,271.324402 
	C49.888588,252.850128 50.065228,234.458511 53.557362,215.742126 
M284.853760,445.349182 
	C285.962524,444.992645 287.047119,444.469391 288.183685,444.304688 
	C304.313263,441.967255 319.383911,436.435455 334.140961,429.688202 
	C362.598969,416.676605 386.377441,397.688721 405.613922,373.228821 
	C439.342255,330.341888 452.832092,281.548279 446.794983,227.317429 
	C443.279449,195.737732 432.933167,166.443512 414.548798,140.711960 
	C366.604736,73.607384 301.090363,44.947014 219.432770,56.492607 
	C165.719376,64.087166 122.944351,91.639084 91.122726,135.469864 
	C64.071632,172.729767 51.996868,214.687241 54.061714,260.770569 
	C55.023773,282.241943 59.258575,302.978241 67.265518,322.838379 
	C86.524078,370.606598 119.407967,405.797150 165.603226,428.691895 
	C186.745087,439.170044 209.073242,445.570618 232.419571,447.319916 
	C249.569809,448.604950 266.911621,448.279633 284.853760,445.349182 
z"/>
<path fill="#000000" opacity="1.000000" stroke="none" 
	d="
M229.275391,378.560577 
	C204.967072,374.406982 183.902817,364.319733 165.822418,348.188385 
	C142.603058,327.472168 128.189606,301.767853 123.682968,270.915527 
	C113.570732,201.687286 156.647125,143.939682 214.768097,127.434914 
	C290.695740,105.873543 364.082153,153.460220 377.982330,227.297424 
	C391.359833,298.358276 345.450439,361.936615 280.213928,377.210754 
	C263.511536,381.121338 246.608047,381.277344 229.275391,378.560577 
M216.237686,259.811768 
	C216.553162,259.507507 216.868622,259.203247 217.877762,258.738342 
	C219.392990,258.517212 220.926788,257.011688 222.575806,258.938263 
	C222.486786,261.323181 220.715439,262.638519 218.956390,263.851288 
	C214.299942,267.061584 209.537720,270.119171 204.898026,273.352905 
	C198.897736,277.534943 198.613922,281.604095 204.321899,286.265289 
	C208.568268,289.732910 213.342972,292.547333 217.665436,295.929901 
	C221.517838,298.944580 225.185532,298.716034 229.191071,296.433563 
	C234.111328,293.629913 239.118729,290.978699 244.098633,288.280334 
	C251.019379,284.530304 251.019562,284.542023 245.461029,279.533264 
	C245.304428,279.392151 245.441254,278.925415 245.441254,278.391602 
	C249.151825,277.801514 252.642273,277.208862 256.117096,275.091766 
	C265.786774,269.200256 277.860413,272.298035 283.363556,281.352997 
	C282.606628,282.947601 281.016876,283.609070 279.607483,284.439117 
	C263.820099,293.737335 248.021515,303.016571 232.223465,312.296661 
	C224.037704,317.105164 215.816589,321.854675 207.681671,326.747589 
	C205.832870,327.859528 202.895126,329.038391 205.215912,331.992096 
	C207.150101,334.453796 213.833908,334.060272 216.044144,331.365234 
	C218.457993,332.845917 220.911957,334.351196 223.268768,335.796875 
	C222.488007,337.823700 220.775253,335.703400 220.147598,337.335693 
	C221.794601,341.419769 225.800690,342.745941 229.263962,344.513702 
	C232.194672,346.009644 235.336746,350.295288 238.722931,344.976074 
	C244.579590,347.568756 248.059448,342.880920 252.096588,340.389801 
	C271.239594,328.577484 290.975647,317.919312 311.668030,309.070282 
	C312.594604,308.674011 313.651733,307.639526 314.853333,309.204498 
	C314.101501,310.051727 313.457489,311.034912 312.581238,311.721863 
	C307.845734,315.434540 307.062286,320.129089 308.879150,325.585388 
	C309.350891,327.002106 309.593811,328.496307 309.921814,329.959381 
	C311.633545,337.594604 318.344818,340.977692 325.545380,337.683685 
	C334.055145,333.790741 337.839203,325.863770 341.695648,318.118958 
	C343.399597,314.696991 344.643555,311.036438 346.842743,307.871094 
	C348.106720,306.051758 349.566467,304.311005 348.036926,302.017883 
	C346.641937,299.926422 344.374207,299.614960 342.223083,300.036407 
	C337.819611,300.899200 333.465363,302.029633 329.117889,303.154419 
	C327.063660,303.685852 325.078552,303.883362 323.517212,302.238800 
	C319.746979,298.267578 314.716980,296.319733 310.150085,293.607056 
	C303.293396,289.534302 295.882904,286.335480 289.848816,280.944336 
	C288.863892,280.064331 287.617157,279.210175 288.423187,277.626617 
	C289.068604,276.358643 290.351532,276.370331 291.501404,276.646362 
	C294.218079,277.298584 295.722137,275.997711 297.307800,273.927307 
	C299.108582,271.575958 301.409149,269.486084 304.617981,269.129395 
	C306.133698,268.960938 307.663605,269.191437 308.604218,270.645264 
	C309.754669,272.423462 308.319458,273.338867 307.308807,274.426575 
	C306.448639,275.352356 305.032990,275.951691 305.245697,277.582550 
	C305.470947,277.849182 305.632263,278.199646 305.901886,278.336060 
	C313.182770,282.019043 320.461517,285.706757 327.769592,289.335388 
	C332.489929,291.679169 336.431335,290.820862 338.660187,287.050690 
	C341.257019,282.658020 338.071960,280.373230 335.360229,277.832764 
	C332.883362,275.512360 329.244690,274.572937 327.429962,271.501160 
	C328.377136,269.635254 330.238098,269.027863 330.890533,267.061523 
	C332.975891,260.776764 335.448242,259.150879 341.829681,259.058228 
	C351.862213,258.912537 357.772980,251.711197 355.527222,241.803879 
	C353.856323,234.432465 351.180054,227.034317 345.787537,221.788391 
	C336.414276,212.669968 334.855011,200.774200 332.509613,189.123489 
	C331.351532,183.370850 334.506470,179.320206 339.596130,178.243195 
	C349.140167,176.223618 349.453430,175.250702 343.314972,168.014999 
	C337.136261,160.731796 330.732300,153.802658 321.477875,150.300995 
	C317.252106,148.702057 316.073059,149.544052 316.553314,154.155640 
	C317.232208,160.675110 312.946014,164.818771 306.400818,163.971970 
	C304.024963,163.664597 301.871704,162.718521 300.014923,161.288101 
	C295.874481,158.098419 291.232941,157.650269 286.263367,158.269363 
	C283.133453,158.659271 279.972839,158.882645 276.819550,158.989532 
	C269.548248,159.235992 268.045837,160.661148 267.951965,167.908173 
	C267.738464,184.397797 267.462952,200.887741 267.443481,217.377823 
	C267.439362,220.856598 266.249603,222.907211 263.242096,224.498947 
	C257.060760,227.770477 250.979568,231.237823 244.928879,234.748215 
	C234.574951,240.755127 223.871429,246.172180 213.330063,253.215942 
	C197.846970,261.926849 182.355072,270.622192 166.889297,279.363678 
	C164.241562,280.860229 162.051483,282.975250 163.943039,286.190979 
	C165.803238,289.353424 168.354919,287.328644 170.408417,286.167419 
	C185.567642,277.595123 200.679611,268.939270 216.237686,259.811768 
M228.550705,194.087799 
	C222.192368,197.733505 215.872299,201.456802 208.665054,204.555389 
	C209.172043,201.626785 211.067780,201.077011 212.592041,200.187851 
	C224.521347,193.229034 236.476471,186.314316 248.381851,179.314896 
	C249.796524,178.483200 252.498550,177.922333 251.170441,175.498062 
	C249.833054,173.056870 247.926071,175.013062 246.480453,175.818466 
	C232.528137,183.591751 218.618774,191.442154 204.682175,199.243759 
	C202.870605,200.257874 201.534225,201.413483 201.075806,203.663239 
	C200.097092,208.466553 195.334549,205.237732 192.731140,207.268875 
	C191.180420,208.478745 191.070786,205.202011 189.999237,204.324402 
	C186.234756,206.363251 190.333832,210.831558 187.176422,212.995667 
	C185.859924,211.371964 187.021591,208.724869 184.270065,207.726929 
	C182.785919,210.987534 180.331818,210.813736 177.323441,209.904861 
	C173.579987,208.773911 168.134262,212.208786 168.084274,215.954224 
	C167.928940,227.596268 168.141815,239.243637 168.254440,250.888535 
	C168.280823,253.617065 170.886948,255.591599 172.355148,254.568359 
	C175.613358,252.297577 176.592651,254.960480 178.357895,256.600342 
	C181.011871,254.503265 183.536026,252.845901 185.061356,249.822495 
	C186.291245,247.384720 188.277649,246.068436 191.407700,245.147812 
	C197.727524,243.289032 204.356018,242.076691 210.351242,239.621109 
	C219.071228,236.049438 226.998047,230.590286 235.468170,226.345184 
	C243.256317,222.441879 248.364563,215.545853 254.737442,210.073441 
	C256.732452,208.360321 257.235107,205.755295 256.829590,203.160812 
	C255.816757,196.680786 255.617584,189.758575 248.484360,186.981476 
	C248.231461,184.469116 250.846909,184.053421 251.235703,181.618805 
	C247.070282,183.858521 243.556274,185.720306 240.068893,187.630707 
	C236.422363,189.628296 232.801453,191.672623 228.550705,194.087799 
M242.194931,164.629791 
	C246.707733,161.935471 251.711304,159.974350 255.418304,156.115906 
	C254.698013,153.399445 252.927017,152.320877 250.596268,152.209015 
	C246.839767,152.028732 244.112061,150.740463 242.123718,147.184372 
	C240.394485,144.091751 235.146317,144.400635 231.397430,147.150696 
	C227.829361,149.768112 227.968887,152.432510 230.956467,155.418121 
	C233.943298,158.402969 232.447464,162.076508 230.991516,164.656754 
	C229.334824,167.592743 225.491180,170.141708 222.245926,169.035873 
	C217.739670,167.500336 216.208115,169.365601 214.551575,172.669830 
	C213.848679,174.071823 213.093033,175.703979 210.768295,176.061813 
	C210.017242,172.572784 206.072708,173.160782 204.073761,170.871933 
	C199.217194,165.311050 196.338058,164.637833 189.487534,167.834045 
	C185.538666,169.676437 181.383011,170.784317 177.357040,172.290985 
	C170.083084,175.013184 162.190781,176.531387 156.006454,181.681824 
	C150.426163,186.329208 149.709595,191.342499 153.659042,197.342117 
	C155.718582,200.470749 155.314926,203.342651 153.123474,206.067749 
	C151.291962,208.345322 150.453247,210.883728 149.830597,213.732178 
	C146.508942,228.927658 150.610596,243.847565 151.297256,258.886047 
	C151.354141,260.131927 152.004745,261.547394 152.811554,262.528900 
	C156.692017,267.249603 161.030350,271.679596 160.319473,279.633881 
	C162.703583,277.278168 162.562592,275.758820 162.558533,274.343689 
	C162.504044,255.365707 162.504379,236.386841 162.286758,217.410522 
	C162.233322,212.748215 163.805008,209.458923 167.873444,207.138916 
	C192.452988,193.122498 216.995972,179.041977 242.194931,164.629791 
z"/>
<path fill="#000000" opacity="1.000000" stroke="none" 
	d="
M144.372162,131.609467 
	C146.227997,133.311493 147.707916,134.922729 149.424789,136.220474 
	C151.851181,138.054520 153.223404,139.551117 150.599731,142.584885 
	C148.072784,145.506836 146.290421,145.307831 143.679565,142.869507 
	C139.689941,139.143555 135.428238,135.708939 130.663345,132.600830 
	C133.743835,137.818100 136.636734,143.159256 139.971664,148.208481 
	C142.145096,151.499161 140.839722,153.579605 138.732986,156.079407 
	C136.472794,158.761322 134.317459,158.843628 131.329865,157.336990 
	C126.911217,155.108673 122.500595,152.749527 116.746033,151.428345 
	C119.684669,156.087173 123.729752,158.660873 127.027420,161.888062 
	C129.289368,164.101639 130.203613,165.657990 127.634674,168.425522 
	C125.107811,171.147736 123.426788,170.587265 121.050362,168.406601 
	C115.044235,162.895279 108.938271,157.485703 102.715782,152.220352 
	C99.867531,149.810211 99.413597,147.932220 102.078957,144.890747 
	C108.022423,138.108551 107.862862,137.989578 115.982895,141.686111 
	C120.614914,143.794785 125.273354,145.845413 131.275818,148.528183 
	C127.227448,141.925369 123.950340,136.589294 120.682480,131.247574 
	C118.403061,127.521568 122.877579,118.239403 127.220314,117.693451 
	C128.761017,117.499756 129.624451,118.671967 130.600296,119.521210 
	C135.118591,123.453354 139.604523,127.422691 144.372162,131.609467 
z"/>
<path fill="#000000" opacity="1.000000" stroke="none" 
	d="
M238.056763,94.462906 
	C237.698593,91.611031 237.099045,89.108711 237.314575,86.678696 
	C238.096970,77.858078 242.127136,72.529655 249.260223,70.767845 
	C257.041809,68.845848 264.265198,69.881691 269.745789,76.236931 
	C274.358551,81.585831 274.688782,92.050369 270.832550,98.409958 
	C267.015533,104.704895 260.959686,106.576622 254.121628,106.169846 
	C246.586166,105.721596 240.676544,102.589584 238.056763,94.462906 
M250.257202,97.434608 
	C254.116592,99.180145 258.234467,99.860329 261.379547,96.657249 
	C264.691376,93.284332 265.136932,88.798035 264.128967,84.126213 
	C263.063599,79.188225 259.918793,77.362938 255.200241,77.321022 
	C250.467468,77.278984 247.554504,79.775795 246.721664,84.129173 
	C245.850723,88.681694 245.430344,93.445259 250.257202,97.434608 
z"/>
<path fill="#000000" opacity="1.000000" stroke="none" 
	d="
M333.932404,89.668533 
	C342.713409,94.119446 346.670013,99.847900 345.953217,106.674316 
	C345.028534,115.480438 339.280670,122.784889 331.742584,124.733315 
	C322.626892,127.089516 310.552795,119.303108 308.895050,109.999275 
	C307.160614,100.265015 315.722107,88.700859 325.326477,87.889671 
	C328.199677,87.647003 330.886536,88.638908 333.932404,89.668533 
M325.971710,117.311646 
	C331.541992,117.103943 334.852631,113.758301 337.122406,106.543549 
	C338.258362,102.932762 337.057556,100.223083 334.290039,98.270645 
	C331.314667,96.171570 327.963257,93.943085 324.236206,96.483124 
	C319.858246,99.466743 317.523438,103.969101 317.467590,109.159172 
	C317.415619,113.988243 321.439514,115.630493 325.971710,117.311646 
z"/>
<path fill="#000000" opacity="1.000000" stroke="none" 
	d="
M205.266663,102.500313 
	C203.771713,95.281036 202.454514,88.445503 201.003860,81.638405 
	C200.368423,78.656693 201.022446,76.949928 204.361938,76.411682 
	C209.751923,75.542946 214.977249,73.691277 220.498077,73.568863 
	C229.684601,73.365166 233.836884,79.943619 229.701553,88.095718 
	C229.409760,88.670959 229.105316,89.239769 228.676529,90.060959 
	C233.814423,93.399147 233.864746,98.952820 235.114548,103.958069 
	C229.627914,107.972771 227.225662,107.237732 225.615875,101.178436 
	C224.276474,96.136887 221.962997,94.593239 217.445709,95.642868 
	C214.414017,96.347298 212.572601,97.642792 213.942474,101.191887 
	C214.407776,102.397400 214.133286,103.884384 214.580597,105.101753 
	C215.626205,107.947388 214.811142,109.561684 211.833069,110.125427 
	C208.960052,110.669304 206.479446,110.659111 206.139557,106.802856 
	C206.023697,105.488632 205.647446,104.197365 205.266663,102.500313 
M218.215485,88.777267 
	C220.429413,88.271553 222.625809,87.493454 222.504013,84.771675 
	C222.336502,81.027893 219.587097,80.708580 216.738022,81.244675 
	C214.116058,81.738022 210.102982,80.586815 210.640900,85.585945 
	C211.143066,90.252747 214.044647,90.140266 218.215485,88.777267 
z"/>
<path fill="#000000" opacity="1.000000" stroke="none" 
	d="
M278.921204,105.953262 
	C276.136627,102.729736 274.915009,99.481438 276.336182,95.271141 
	C280.000458,95.322212 283.255737,94.995857 284.587646,99.984238 
	C285.688843,104.108505 289.696655,104.774841 293.568512,104.543343 
	C295.038788,104.455429 295.997650,103.424278 296.418427,102.081818 
	C296.935028,100.433609 296.268463,99.019569 294.800903,98.288177 
	C292.130524,96.957291 289.342804,95.863983 286.624023,94.627609 
	C280.921478,92.034363 278.682343,88.102829 279.860809,82.824959 
	C280.982269,77.802345 285.815369,74.261467 291.592285,74.906555 
	C297.586853,75.575958 303.570343,76.842735 306.982483,82.691170 
	C308.309540,84.965759 309.794678,88.317696 307.008575,89.720406 
	C304.556915,90.954735 301.089844,89.953812 299.762054,86.451668 
	C298.402618,82.866127 295.481873,82.116272 292.116119,82.210114 
	C290.472198,82.255951 289.183136,83.039085 288.709717,84.649734 
	C288.170685,86.483589 289.472870,87.463097 290.853058,88.113701 
	C293.857574,89.529961 296.996246,90.671120 299.957306,92.167702 
	C304.644348,94.536621 306.219360,98.083679 305.213379,103.355331 
	C304.342529,107.918846 300.676941,111.156609 295.789124,111.437874 
	C289.624146,111.792641 283.858215,110.702843 278.921204,105.953262 
z"/>
<path fill="#000000" opacity="1.000000" stroke="none" 
	d="
M174.022705,104.748528 
	C178.041168,113.098267 182.926590,115.080276 188.923218,111.108330 
	C190.975739,109.748810 192.795517,107.874229 192.500717,105.466774 
	C191.822845,99.931107 195.412201,99.250488 199.255341,98.513344 
	C202.391693,103.674576 202.015686,109.105438 198.342377,113.306511 
	C192.944504,119.479935 182.260941,122.450630 175.654495,119.615166 
	C168.473663,116.533165 163.732849,107.811783 164.726181,98.960518 
	C165.638260,90.833168 171.491409,87.213165 178.413162,84.783463 
	C184.164993,82.764427 189.598999,82.975372 194.057083,87.692337 
	C195.331940,89.041222 197.586853,90.919220 195.647308,92.729774 
	C193.757614,94.493820 190.902740,96.739441 188.173569,94.080544 
	C184.455612,90.458328 180.777557,90.901581 176.884216,93.350082 
	C172.549377,96.076248 172.663177,100.104683 174.022705,104.748528 
z"/>
<path fill="#000000" opacity="1.000000" stroke="none" 
	d="
M367.951447,132.055328 
	C366.469086,136.645233 364.152466,137.570969 360.784515,134.120972 
	C360.439117,133.767136 360.007446,133.498230 359.620392,133.184296 
	C352.081909,127.070160 351.997803,126.993576 345.493561,134.164917 
	C343.375793,136.499908 341.757904,136.238464 339.648438,134.407242 
	C337.735748,132.746841 336.235443,131.345306 338.472076,128.713165 
	C344.494080,121.626328 350.374786,114.419060 356.279510,107.233231 
	C357.776550,105.411446 359.186218,105.495926 360.916351,106.951691 
	C366.127106,111.336044 371.371490,115.682220 376.674164,119.954689 
	C379.007660,121.834831 378.333313,123.475586 376.800323,125.435333 
	C375.037079,127.689453 373.481354,126.922226 371.771606,125.481163 
	C368.850769,123.019417 365.830933,120.670448 362.985229,118.125854 
	C360.895844,116.257538 359.550049,117.100769 358.049683,118.875420 
	C356.482727,120.728882 356.974823,121.917030 358.650757,123.432037 
	C361.717682,126.204460 365.348145,128.352859 367.951447,132.055328 
z"/>
<path fill="#000000" opacity="1.000000" stroke="none" 
	d="
M158.306763,137.169098 
	C155.980667,138.903946 154.403610,138.462585 153.048462,136.348358 
	C151.932358,134.607040 151.401413,133.046524 153.498627,131.668579 
	C155.858368,130.118149 155.110611,128.443085 153.787323,126.628738 
	C151.629349,123.669983 149.533905,120.664268 147.467178,117.640717 
	C145.828568,115.243515 144.347549,113.834290 140.966553,115.511726 
	C137.644882,117.159721 137.237381,113.485596 135.679092,111.322266 
	C140.132507,107.061058 145.358582,104.113464 150.132767,100.587486 
	C151.946671,99.247810 153.224197,100.217072 154.291428,101.734474 
	C155.280807,103.141197 156.265335,104.578316 154.518677,106.110825 
	C153.775436,106.762955 152.955826,107.328072 151.526764,108.428986 
	C154.950714,113.169456 158.286224,117.842140 161.688232,122.465912 
	C162.776932,123.945618 164.231003,123.863312 165.675537,122.956474 
	C168.308487,121.303596 169.608124,122.978432 170.835754,124.955139 
	C172.231171,127.202026 170.663834,128.311722 169.143372,129.412079 
	C165.637360,131.949387 162.110153,134.457428 158.306763,137.169098 
z"/>
<path fill="#000000" opacity="1.000000" stroke="none" 
	d="
M367.105011,160.963593 
	C364.336426,158.167633 364.934265,156.350052 367.712341,154.286194 
	C372.518433,150.715652 376.920929,146.602280 381.723114,143.025925 
	C384.706268,140.804260 385.178314,138.847000 382.428497,136.251923 
	C381.829132,135.686264 381.392700,134.950943 380.857880,134.313324 
	C379.331177,132.493210 379.143646,130.910446 381.227814,129.225464 
	C383.158569,127.664482 384.683838,127.539978 386.298035,129.558990 
	C391.392151,135.930557 396.505035,142.287384 401.653229,148.615295 
	C403.261169,150.591721 402.349731,151.838776 400.735138,153.177277 
	C399.029968,154.590851 397.548279,154.826706 396.026276,153.003113 
	C394.542236,151.225128 393.023621,149.476044 391.169006,147.302719 
	C384.791473,151.426178 379.340118,156.494644 373.567566,161.127182 
	C371.471832,162.809021 369.485168,164.345306 367.105011,160.963593 
z"/>
<path fill="#000000" opacity="1.000000" stroke="none" 
	d="
M75.506470,266.883850 
	C74.239532,266.488831 73.307533,266.211273 72.375542,265.933716 
	C79.519493,264.398346 84.285858,260.756409 84.981827,252.168808 
	C86.262436,260.144775 90.240372,264.638611 98.328094,265.459045 
	C90.477020,266.644073 85.970253,270.440460 85.320961,278.729034 
	C83.430374,273.201843 82.429993,267.719788 75.506470,266.883850 
z"/>
<path fill="#000000" opacity="1.000000" stroke="none" 
	d="
M418.537903,279.603851 
	C418.021698,281.629608 418.484741,283.677032 415.782227,285.041046 
	C416.360809,276.537964 411.250732,273.183411 402.592834,272.313263 
	C413.908966,267.698029 413.908966,267.698029 416.845551,257.698120 
	C418.297455,265.688568 421.004578,271.289093 429.509552,271.376312 
	C425.525360,274.074005 419.948914,273.826599 418.537903,279.603851 
z"/>
<path fill="#000000" opacity="1.000000" stroke="none" 
	d="
M146.739410,384.692078 
	C146.320724,386.981476 146.010864,388.907654 145.684769,390.934753 
	C149.609863,392.217438 152.546753,386.895813 156.953949,389.926971 
	C154.205795,394.634308 151.292679,398.882507 146.544601,402.503479 
	C145.002121,398.011658 149.091690,396.841400 149.624451,394.087128 
	C147.148407,393.761078 145.142517,397.142059 142.773621,395.463959 
	C140.355148,393.750763 143.140427,391.126343 142.358704,388.769775 
	C139.845612,389.647186 139.315247,393.501068 136.019211,393.280670 
	C136.136230,390.537811 142.488739,381.051453 144.514755,380.783020 
	C147.424850,380.397400 147.235382,382.371521 146.739410,384.692078 
z"/>
<path fill="#000000" opacity="1.000000" stroke="none" 
	d="
M322.847961,414.484833 
	C322.728394,417.158356 325.072205,419.070374 324.525421,421.698639 
	C322.849854,422.888794 322.017426,421.891235 321.369324,420.598663 
	C319.880585,417.629364 318.419891,414.645599 316.985718,411.649536 
	C316.491913,410.618011 315.792938,409.472107 316.839874,408.436615 
	C317.988190,407.300812 319.350098,407.753601 320.518951,408.424377 
	C322.953400,409.821442 325.320099,411.336548 327.926422,412.932831 
	C327.908173,409.581055 324.555786,407.363220 325.488159,403.985870 
	C328.944946,404.828217 332.543060,411.199036 333.324158,417.671478 
	C329.037323,419.111511 326.649139,414.657166 322.847961,414.484833 
z"/>
<path fill="#000000" opacity="1.000000" stroke="none" 
	d="
M209.184509,432.112488 
	C204.410049,427.860077 203.555069,424.398438 206.056717,420.177887 
	C208.018982,416.867279 210.811569,415.099304 214.795395,416.103119 
	C219.530838,417.296326 222.204620,421.444733 221.130676,425.812622 
	C219.656097,431.809906 215.902115,433.908142 209.184509,432.112488 
M212.700668,419.275635 
	C208.941452,419.955505 207.977936,422.548737 208.450989,425.858826 
	C208.797501,428.283600 210.442032,429.658844 212.912781,429.623260 
	C216.036575,429.578247 217.081741,427.223175 217.532806,424.708496 
	C218.088272,421.611664 216.809509,419.578888 212.700668,419.275635 
z"/>
<path fill="#000000" opacity="1.000000" stroke="none" 
	d="
M78.187851,284.385071 
	C83.035950,282.394653 87.812309,281.692291 93.022537,281.689484 
	C92.934937,286.870148 87.701469,287.504150 86.468735,291.163452 
	C88.958549,293.091858 92.224342,289.767242 95.365219,292.847870 
	C90.039192,295.646454 84.748489,295.479095 79.248558,296.111542 
	C79.330673,290.762207 84.619164,289.842682 85.866791,286.168976 
	C83.353363,284.663025 79.993698,288.432220 78.187851,284.385071 
z"/>
<path fill="#000000" opacity="1.000000" stroke="none" 
	d="
M343.024658,393.713562 
	C343.435181,393.170959 343.696625,392.806976 343.961029,392.804840 
	C347.281586,392.777893 356.060394,399.269958 357.742615,403.490143 
	C351.707825,401.071136 348.172241,402.638794 348.106049,409.815643 
	C344.093658,404.868378 343.971954,399.299042 343.024658,393.713562 
z"/>
<path fill="#000000" opacity="1.000000" stroke="none" 
	d="
M392.208984,350.571350 
	C393.819000,349.750244 395.073761,348.919464 396.427521,348.307678 
	C398.943359,347.170715 401.043945,347.870911 402.357086,350.253998 
	C403.944763,353.135193 402.399994,355.407227 400.420349,357.310394 
	C398.577942,359.081665 396.543701,359.530090 394.534882,357.272369 
	C395.639862,354.854767 400.423767,355.968781 399.251831,351.958069 
	C396.974792,350.702179 395.747437,352.593445 394.241852,353.361206 
	C392.032471,354.487823 389.801086,355.239838 387.859070,353.161102 
	C385.976013,351.145447 386.461304,348.850861 387.886810,346.763153 
	C389.519531,344.371918 391.628510,343.819672 394.121063,345.101013 
	C394.357147,347.486633 392.592377,347.128601 391.541962,347.738342 
	C389.658295,348.831757 388.878082,350.044006 392.208984,350.571350 
z"/>
<path fill="#000000" opacity="1.000000" stroke="none" 
	d="
M401.618774,329.446320 
	C398.932556,326.610535 398.841919,324.657715 403.013885,324.743225 
	C407.477966,324.834656 412.140320,324.021271 417.755768,327.060669 
	C411.015167,328.601166 407.929993,331.426544 412.709656,337.828644 
	C407.265045,336.155487 405.197083,332.109314 401.618774,329.446320 
z"/>
<path fill="#000000" opacity="1.000000" stroke="none" 
	d="
M124.426758,378.675507 
	C124.810005,379.651306 124.725006,380.676544 124.134842,380.653168 
	C120.816711,380.521759 119.900482,377.364258 118.108940,375.395844 
	C116.570526,373.705566 118.165276,372.375702 119.409401,371.258911 
	C121.012367,369.820038 122.592293,368.338867 124.316521,367.056610 
	C125.932205,365.855042 127.226097,362.876495 129.548996,364.326385 
	C131.984238,365.846436 134.644135,367.840454 134.859650,371.351013 
	C132.600571,372.229614 132.008514,370.441589 130.964569,369.564667 
	C129.985443,368.742188 129.141541,367.278198 127.655014,368.486511 
	C126.218758,369.653931 127.191116,370.828705 127.965042,371.950623 
	C128.674881,372.979675 129.984039,373.831696 129.143738,375.469116 
	C126.302277,377.009827 125.230530,370.246002 122.320038,373.769226 
	C120.874268,375.519409 123.541649,376.834686 124.426758,378.675507 
z"/>
<path fill="#000000" opacity="1.000000" stroke="none" 
	d="
M181.083588,410.056702 
	C184.504547,406.870178 188.011398,406.866791 191.394531,408.998413 
	C193.543243,410.352264 194.936127,412.442261 193.379700,415.810760 
	C190.206558,414.354889 189.017532,407.699036 184.062241,411.835510 
	C182.354538,413.260956 181.187500,415.329407 181.818436,417.562622 
	C183.198929,422.449097 187.430801,420.522156 191.986267,420.487640 
	C189.102661,424.712494 186.274658,424.955322 183.044739,423.439911 
	C178.112854,421.125885 177.291046,416.029633 181.083588,410.056702 
z"/>
<path fill="#000000" opacity="1.000000" stroke="none" 
	d="
M285.573547,428.422791 
	C285.932678,424.834808 283.369446,421.660339 285.440887,418.380249 
	C288.797943,421.327484 290.172272,428.787415 288.050598,432.210144 
	C285.715668,435.976929 280.027344,435.977722 277.545380,432.211609 
	C275.998047,429.863678 275.132721,423.292694 276.073242,419.271179 
	C279.508270,421.553101 278.629211,425.168243 279.479523,428.012817 
	C279.918427,429.481140 280.347504,431.030670 282.016327,431.413940 
	C284.041199,431.878998 285.088745,430.657349 285.573547,428.422791 
z"/>
<path fill="#000000" opacity="1.000000" stroke="none" 
	d="
M88.501869,313.230652 
	C85.680542,315.435547 89.520645,318.086090 87.204727,320.695923 
	C84.752365,318.232971 83.868561,315.309692 84.056595,312.103668 
	C84.134949,310.767639 96.254799,306.120850 97.524437,307.085449 
	C100.289589,309.186249 101.019691,312.299103 100.842384,315.690094 
	C98.436264,315.954224 98.316154,314.159851 97.759773,312.893463 
	C97.212616,311.648102 96.823479,310.209778 95.016304,310.925873 
	C93.350838,311.585754 93.709091,312.870697 94.096962,314.257446 
	C94.389503,315.303314 94.275879,316.462769 94.345299,317.609161 
	C90.553993,318.092682 92.329247,312.486847 88.501869,313.230652 
z"/>
<path fill="#000000" opacity="1.000000" stroke="none" 
	d="
M370.615204,383.276794 
	C366.311401,386.518585 372.271515,388.901031 371.034454,391.743958 
	C368.318481,391.253204 359.889771,383.777588 359.737366,381.639679 
	C359.549500,379.004028 361.895752,378.092285 363.528809,376.848602 
	C365.544769,375.313232 367.875366,375.049347 369.940765,376.770874 
	C372.015167,378.499847 372.205414,380.689789 370.615204,383.276794 
M365.509155,379.232941 
	C364.020569,380.387604 363.021545,381.654602 365.147736,383.072876 
	C366.423218,383.923645 367.392731,383.062592 367.959686,382.010040 
	C369.054779,379.976807 368.392365,378.888580 365.509155,379.232941 
z"/>
<path fill="#000000" opacity="1.000000" stroke="none" 
	d="
M98.221619,342.068146 
	C95.836876,341.897980 94.176819,340.670563 95.358047,338.924530 
	C98.235298,334.671539 101.841148,330.980438 106.431137,326.809845 
	C107.309479,333.003601 101.660103,333.992126 100.900002,338.121582 
	C104.356621,339.553223 108.304611,336.110931 112.014038,339.063690 
	C107.806587,342.537628 102.817017,340.562134 98.221619,342.068146 
z"/>
<path fill="#000000" opacity="1.000000" stroke="none" 
	d="
M255.626740,430.214111 
	C256.187317,426.172424 255.269806,423.418823 249.629196,422.549408 
	C255.047760,419.744720 258.916840,420.526978 263.235718,421.640503 
	C255.536499,424.807831 261.750793,432.751160 257.799408,437.239777 
	C254.748230,435.318268 256.010742,432.756622 255.626740,430.214111 
z"/>
<path fill="#000000" opacity="1.000000" stroke="none" 
	d="
M422.659302,306.212250 
	C420.749817,309.744202 418.389557,306.992828 416.331268,306.623474 
	C413.100037,306.043671 409.982635,304.576874 407.358490,309.654907 
	C406.643188,304.429596 407.785706,301.105835 410.302551,296.562836 
	C411.064972,305.418304 418.641846,302.655640 422.659302,306.212250 
z"/>
<path fill="#000000" opacity="1.000000" stroke="none" 
	d="
M381.017578,364.842072 
	C383.861725,367.639343 387.559570,369.146790 389.262604,372.958374 
	C385.282745,373.400452 378.052887,367.789551 376.453400,363.463348 
	C378.358063,362.079651 379.413666,363.849213 381.017578,364.842072 
z"/>
<path fill="#000000" opacity="1.000000" stroke="none" 
	d="
M117.332672,355.308746 
	C113.746391,357.070831 111.518478,360.691437 105.865150,360.871094 
	C109.922752,355.584412 114.481766,353.255981 119.050163,350.730225 
	C120.812630,353.477081 118.629227,354.028625 117.332672,355.308746 
z"/>
<path fill="#000000" opacity="1.000000" stroke="none" 
	d="
M216.022064,260.060730 
	C209.763733,259.794983 212.424225,256.497192 213.837006,253.322876 
	C218.139908,252.776077 218.645081,254.925156 217.290619,258.557526 
	C216.868622,259.203247 216.553162,259.507507 216.022064,260.060730 
z"/>
<path fill="#000000" opacity="1.000000" stroke="none" 
	d="
M273.569092,322.618408 
	C270.543762,324.339050 267.819122,325.849304 265.094513,327.359589 
	C264.851501,326.932648 264.608490,326.505737 264.365479,326.078827 
	C269.613251,320.800568 276.736145,318.598022 283.245605,315.376617 
	C280.951385,318.912262 277.066437,320.178894 273.569092,322.618408 
z"/>
<path fill="#000000" opacity="1.000000" stroke="none" 
	d="
M279.953827,305.969696 
	C278.337250,307.812469 274.365204,307.318237 276.175934,311.618378 
	C274.019653,310.950195 272.507629,310.481628 270.102875,309.736450 
	C274.092194,308.685425 275.309570,303.399384 279.953827,305.969696 
z"/>
<path fill="#000000" opacity="1.000000" stroke="none" 
	d="
M184.968719,183.531708 
	C181.401474,180.916489 181.130783,177.233017 184.408722,175.758163 
	C188.153931,174.073029 192.217224,173.050400 196.205582,171.974442 
	C197.584167,171.602509 199.319458,171.644760 200.263474,173.133041 
	C201.328720,174.812439 200.433273,176.390030 199.472519,177.737823 
	C198.227081,179.484985 196.766510,181.078781 195.166779,183.019806 
	C191.916046,181.486374 188.595932,182.095337 184.968719,183.531708 
z"/>
</svg>